<svg width="95" height="95" viewBox="0 0 95 95" fill="none" xmlns="http://www.w3.org/2000/svg">
<g clip-path="url(#clip0)">
<path d="M84.2277 94.4931H10.7709C8.84663 94.4931 7.28711 92.9336 7.28711 91.0093V34.8386H87.7122V91.0093C87.7122 92.9336 86.152 94.4931 84.2277 94.4931Z" fill="#FFC73B"/>
<path d="M7.28711 34.8386H87.7122V46.5271H7.28711V34.8386Z" fill="#EFB025"/>
<path d="M94.5555 22.6532V37.1341C94.5555 38.6807 93.3004 39.9336 91.7538 39.9336H3.24386C1.69726 39.9336 0.444336 38.6807 0.444336 37.1341V22.6532C0.444336 21.1066 1.69726 19.8537 3.24386 19.8537H91.7538C93.3004 19.8537 94.5555 21.1066 94.5555 22.6532Z" fill="#FFC73B"/>
<path d="M44.3003 26.5111C43.6893 27.2227 43.0898 27.9443 42.5046 28.6738C40.324 31.3871 38.3279 34.2304 36.5236 37.1815C35.9685 38.089 35.4329 39.0059 34.9131 39.9336H15.8262C16.9412 37.4033 18.164 34.9197 19.4887 32.4921C21.8912 28.0879 24.6326 23.8616 27.6956 19.8537C28.4273 18.8966 29.1761 17.951 29.9437 17.0197C30.4032 16.4582 30.8707 15.9047 31.3445 15.3532C33.0864 16.8539 34.8269 18.3531 36.5695 19.8537C36.8395 20.0849 37.1094 20.319 37.3787 20.5509C39.4351 22.3215 41.4915 24.0914 43.5471 25.8642C43.7992 26.0781 44.049 26.2957 44.3003 26.5111Z" fill="#EFB025"/>
<path d="M72.7793 39.9336H53.6909C53.1732 39.0059 52.6355 38.089 52.0804 37.1815C50.2761 34.2304 48.2778 31.3871 46.0994 28.6738C45.5121 27.9443 44.9125 27.2227 44.3008 26.5111C44.5528 26.2957 44.8027 26.0796 45.0547 25.8642C47.1125 24.0914 49.1689 22.3194 51.2246 20.5509C51.4945 20.319 51.7645 20.0849 52.0345 19.8537C53.7764 18.3531 55.519 16.8539 57.2594 15.3532C57.7333 15.9032 58.2008 16.4582 58.6603 17.0183C59.4293 17.951 60.1789 18.8966 60.9084 19.8537C63.9714 23.8616 66.7128 28.0879 69.1167 32.4921C70.4414 34.9197 71.6642 37.4033 72.7793 39.9336Z" fill="#EFB025"/>
<path d="M47.498 26.5125C46.8863 27.2234 46.2867 27.945 45.7016 28.6745C43.5217 31.3878 41.5249 34.2312 39.7205 37.1829C33.9922 46.5465 30.1875 57.0065 28.5828 67.9547C26.171 64.756 23.9451 61.2951 21.9426 57.5945C18.42 59.8921 14.9772 62.5201 11.6621 65.4768C13.3645 53.8637 17.1154 42.7015 22.6864 32.4929C25.6619 27.0374 29.1586 21.8541 33.1407 17.0204C33.6002 16.459 34.0676 15.9061 34.5415 15.3539C36.5534 17.0865 38.5638 18.8191 40.5764 20.5516C42.6321 22.3222 44.6885 24.0921 46.7448 25.8649C46.9961 26.0789 47.246 26.2964 47.498 26.5125Z" fill="#FF4440"/>
<path d="M83.3354 65.4768C80.0204 62.5201 76.5775 59.8921 73.0549 57.5945C71.0524 61.2951 68.8266 64.756 66.4148 67.9547C64.81 57.0065 61.006 46.5465 55.277 37.1829C53.4726 34.2312 51.4744 31.3878 49.2959 28.6745C48.7086 27.945 48.1091 27.2234 47.498 26.5125C47.7494 26.2964 47.9992 26.0803 48.2512 25.8649C50.3091 24.0921 52.3654 22.3201 54.4218 20.5516C56.4337 18.8169 58.4463 17.0865 60.456 15.3539C60.9299 15.9039 61.3973 16.459 61.8568 17.019C65.8396 21.8527 69.3363 27.036 72.3132 32.4929C77.8828 42.7015 81.633 53.8637 83.3354 65.4768Z" fill="#FF4440"/>
<path d="M40.0059 26.5125H54.9915V39.9336H40.0059V26.5125Z" fill="#FF4440"/>
<path d="M72.3132 32.4929L55.277 37.1829C53.4726 34.2312 51.4744 31.3878 49.2959 28.6745L48.2512 25.8649L47.498 23.8387L54.4218 20.5516L61.8568 17.019C65.8396 21.8527 69.3363 27.036 72.3132 32.4929Z" fill="#EA2F2F"/>
<path d="M47.4981 23.8387L46.7449 25.8649L45.7016 28.6745C43.5218 31.3878 41.525 34.2312 39.7206 37.1829L22.6865 32.4929C25.662 27.0374 29.1587 21.8541 33.1408 17.0204L40.5765 20.5516L47.4981 23.8387Z" fill="#EA2F2F"/>
<path d="M74.6879 1.09568L47.499 14.0077L52.7218 28.0541L81.7424 20.0662C85.5378 19.0215 87.6229 14.9483 86.2508 11.2584L83.8555 4.81784C82.4841 1.12799 78.2443 -0.593084 74.6879 1.09568Z" fill="#FF4440"/>
<path d="M20.3105 1.09568L47.4995 14.0077L42.2767 28.0541L13.2568 20.0662C9.4614 19.0215 7.3763 14.9483 8.74842 11.2584L11.143 4.81784C12.5151 1.12799 16.7542 -0.593084 20.3105 1.09568Z" fill="#FF4440"/>
<path d="M53.9913 19.6527C53.4973 19.6527 53.0127 19.4086 52.7276 18.9612C52.2818 18.264 52.485 17.3378 53.1821 16.8919C53.3882 16.7605 58.285 13.6444 63.9071 11.3704C72.012 8.09198 77.4243 8.2679 79.9919 11.8931C80.4709 12.5688 80.3107 13.5043 79.6351 13.9825C78.9594 14.4607 78.0246 14.3013 77.5464 13.6257C74.0655 8.71163 59.5925 16.3527 54.7969 19.4172C54.5471 19.5766 54.2678 19.6527 53.9913 19.6527Z" fill="#EA2F2F"/>
<path d="M40.8587 19.6527C40.5823 19.6527 40.303 19.5766 40.0531 19.4172C35.2575 16.3527 20.7846 8.71163 17.3037 13.6257C16.8248 14.3013 15.8899 14.4607 15.2143 13.9825C14.5393 13.5036 14.3792 12.5688 14.8581 11.8931C17.4257 8.2679 22.8374 8.09198 30.943 11.3704C36.565 13.6436 41.4619 16.7605 41.6679 16.8919C42.3651 17.3378 42.5683 18.264 42.1232 18.9612C41.8367 19.4086 41.3527 19.6527 40.8587 19.6527Z" fill="#EA2F2F"/>
<path d="M51.7624 9.17976H43.2353C40.9017 9.17976 39.0098 11.0717 39.0098 13.406V25.7938C39.0098 28.1281 40.9017 30.02 43.2353 30.02H51.7624C54.0959 30.02 55.9879 28.1281 55.9879 25.7938V13.406C55.9879 11.0717 54.0959 9.17976 51.7624 9.17976Z" fill="#EA2F2F"/>
<path d="M40.0068 39.9336H54.9924V94.4931H40.0068V39.9336Z" fill="#FF4440"/>
<path d="M40.0068 39.9336H54.9924V46.5271H40.0068V39.9336Z" fill="#EA2F2F"/>
</g>
<defs>
<clipPath id="clip0">
<rect width="94.1111" height="94.1111" fill="white" transform="translate(0.444336 0.444443)"/>
</clipPath>
</defs>
</svg>
