<svg width="160" height="28" viewBox="0 0 160 28" fill="none" xmlns="http://www.w3.org/2000/svg">
<g clip-path="url(#clip0)">
<path d="M3.97516 27.7H1.09317C0.496898 27.7 0.29814 27.6 0.29814 26.9V2.69998C0.29814 1.89998 0.795035 0.599976 2.48448 0.599976H20.9689C22.6584 0.599976 23.1553 1.89998 23.1553 2.69998V27C23.1553 27.7 22.9565 27.8 22.3603 27.8H19.5776C18.9814 27.8 18.7826 27.7 18.7826 27V4.49998H4.77019V27C4.77019 27.6 4.57143 27.7 3.97516 27.7Z" fill="#FA3F3F"/>
<path d="M51.9752 11.4006C51.9752 14.7006 50.1863 15.4006 48.0994 15.4006H33.2919C33.2919 21.9006 37.0683 24.3006 41.441 24.3006C43.7267 24.3006 46.1118 23.6006 47.5031 22.8006C47.9006 22.5006 48.1988 22.6006 48.4969 23.1006L49.5901 25.3006C49.8882 25.8006 49.7888 26.1006 49.2919 26.3006C46.8075 27.8006 43.8261 28.2006 41.1429 28.2006C33.4907 28.2006 28.8199 23.9006 28.8199 14.2006C28.8199 5.10061 33.8882 -0.0993958 40.7453 -0.0993958C48.4969 0.00060425 51.9752 4.6006 51.9752 11.4006ZM40.7453 3.70061C36.1739 3.70061 33.7888 7.5006 33.4907 11.8006H47.7019C47.7019 7.5006 46.3106 3.70061 40.7453 3.70061Z" fill="#FA3F3F"/>
<path d="M91.528 27.7H59.9255C58.4348 27.7 57.5404 26.7 57.5404 24.9V1.39997C57.5404 0.599969 57.8385 0.499969 58.5342 0.499969H61.0186C61.8137 0.499969 62.0124 0.599969 62.0124 1.39997V24H73.5404V1.39997C73.5404 0.599969 73.7391 0.499969 74.5342 0.499969H76.9193C77.7143 0.499969 77.9131 0.599969 77.9131 1.39997V24H89.441V1.39997C89.441 0.599969 89.7391 0.499969 90.4348 0.499969H92.9193C93.5155 0.499969 93.8137 0.599969 93.8137 1.39997V24.9C93.9131 26.7 93.118 27.7 91.528 27.7Z" fill="#FA3F3F"/>
<path d="M110.112 27.7H107.627C106.932 27.7 106.733 27.5 106.733 26.8V4.39997H98.7826C97.9876 4.39997 97.8882 4.09997 97.8882 3.49997V1.49997C97.8882 0.899969 98.087 0.499969 98.7826 0.499969H119.453C120.248 0.499969 120.348 0.899969 120.348 1.49997V3.49997C120.348 4.09997 120.248 4.39997 119.453 4.39997H111.106V26.8C111.106 27.6 110.807 27.7 110.112 27.7Z" fill="#FA3F3F"/>
<path d="M141.913 26.5C138.832 27.9 135.056 28.3 131.677 28.3C122.832 28.3 120.646 24.3 120.646 19.7C120.646 14.9 123.627 10.5 131.876 10.5H138.137V9.39997C138.137 6.09997 137.143 3.99997 131.975 3.99997C129.59 3.99997 126.509 4.49997 124.82 4.99997C124.224 5.19997 123.925 5.19997 123.826 4.59997L123.23 2.39997C123.031 1.99997 123.13 1.69997 123.727 1.49997C126.311 0.399969 129.988 -3.05176e-05 132.87 -3.05176e-05C139.727 -3.05176e-05 142.708 3.19997 142.708 8.99997V25.2C142.609 25.9 142.41 26.3 141.913 26.5ZM132.075 14.4C129.59 14.4 125.118 14.8 125.118 19.7C125.118 23.5 128 24.6 131.677 24.6C132.87 24.6 135.95 24.4 138.137 23.6V14.4H132.075Z" fill="#FA3F3F"/>
<path d="M159.503 4.40001C159.503 6.50001 157.814 8.20001 155.826 8.20001C153.739 8.20001 152.149 6.50001 152.149 4.40001C152.149 2.30001 153.839 0.700012 155.826 0.700012C157.814 0.700012 159.503 2.40001 159.503 4.40001ZM160 4.40001C160 2.00001 158.112 0.200012 155.727 0.200012C153.342 0.200012 151.453 2.10001 151.453 4.40001C151.453 6.80001 153.342 8.70001 155.727 8.70001C158.112 8.70001 160 6.80001 160 4.40001ZM157.913 3.30001C157.913 2.90001 157.714 2.50001 157.416 2.30001C157.019 2.10001 156.621 2.10001 156.224 2.10001H154.137V6.90001H154.733V4.70001H155.826L157.217 6.90001H157.913L156.522 4.70001C157.317 4.60001 157.913 4.30001 157.913 3.30001ZM157.317 3.30001C157.317 4.30001 156.323 4.20001 155.627 4.20001H154.733V2.50001H156.124C156.72 2.50001 157.317 2.60001 157.317 3.30001Z" fill="#303030"/>
</g>
<defs>
<clipPath id="clip0">
<rect width="160" height="28" fill="white"/>
</clipPath>
</defs>
</svg>
